# xmcd CD database file
#
# Track frame offsets:
#	200
#	24657
#	46942
#	63742
#	90585
#	106810
#	130960
#	152207
#
# Disc length: 2318 seconds
#
# Revision: 2
# Processed by: cddbd v1.4PL0 Copyright (c) Steve Scherf et al.
# Submitted via: CDex 1.50
#
DISCID=65090c08
DTITLE=The Dolphin Brothers - Catch The Fall
DYEAR=1987
DGENRE=Rock - Synth Pop Vocals
TTITLE0=Catch The Fall
TTITLE1=Shining
TTITLE2=Second Sight
TTITLE3=Love That You Need
TTITLE4=Real Life, Real Answers
TTITLE5=Host To The Holy
TTITLE6=My Winter
TTITLE7=Pushing The River
EXTD=YEAR: 1987
EXTT0=
EXTT1=
EXTT2=
EXTT3=
EXTT4=
EXTT5=
EXTT6=
EXTT7=
PLAYORDER=
